<?xml version="1.0" standalone="no"?>
<!DOCTYPE svg PUBLIC "-//W3C//DTD SVG 20010904//EN"
 "http://www.w3.org/TR/2001/REC-SVG-20010904/DTD/svg10.dtd">
<svg version="1.0" xmlns="http://www.w3.org/2000/svg"
 width="200.000000pt" height="200.000000pt" viewBox="0 0 200.000000 200.000000"
 preserveAspectRatio="xMidYMid meet">
<metadata>
Created by potrace 1.14, written by Peter Selinger 2001-2017
</metadata>
<g transform="translate(0.000000,200.000000) scale(0.100000,-0.100000)"
fill="#000000" stroke="none">
<path d="M0 1000 l0 -1000 1000 0 1000 0 0 1000 0 1000 -1000 0 -1000 0 0
-1000z m734 725 c8 -9 12 -23 9 -32 -11 -27 21 -42 70 -31 57 13 56 13 190 -1
66 -6 141 -9 168 -5 36 5 58 2 85 -11 23 -11 49 -15 69 -12 28 5 41 -2 99 -50
36 -30 66 -61 66 -68 0 -7 6 -20 13 -27 15 -15 39 -121 38 -161 -2 -44 -39
-132 -77 -182 -45 -58 -41 -86 17 -111 22 -10 49 -33 60 -50 11 -18 30 -39 42
-47 13 -8 29 -35 37 -58 7 -24 17 -48 20 -52 12 -13 0 -149 -16 -191 -9 -22
-24 -52 -35 -67 -10 -15 -19 -34 -19 -42 0 -27 -27 -68 -68 -103 -22 -19 -45
-34 -50 -34 -22 0 -154 -72 -174 -95 -13 -16 -32 -25 -50 -25 -15 0 -28 -5
-28 -11 0 -7 -7 -8 -17 -4 -34 13 -75 14 -94 2 -15 -9 -23 -9 -40 1 -11 7 -52
15 -90 17 -42 3 -79 11 -95 22 -18 11 -54 18 -112 21 -79 4 -89 3 -138 -24
-50 -27 -55 -28 -81 -14 -15 9 -41 15 -58 14 -36 -1 -135 43 -135 61 0 7 -15
32 -34 56 -18 24 -36 54 -40 67 -4 12 -12 22 -17 22 -5 0 -9 13 -9 28 0 15 -5
33 -12 40 -9 9 -7 13 5 18 9 3 19 20 23 38 8 46 77 122 137 153 28 14 73 40
100 59 27 19 55 34 61 34 12 0 66 74 66 90 0 5 14 18 30 30 17 12 30 30 30 41
0 10 9 53 21 94 18 67 19 86 10 183 -5 59 -15 120 -20 135 -8 19 -7 27 1 27
19 0 0 74 -24 94 -16 14 -18 17 -5 13 21 -8 21 -4 2 33 -9 17 -11 30 -6 30 5
0 7 15 4 33 -8 54 36 86 71 52z m-138 -182 c4 -16 14 -40 23 -55 14 -26 14
-29 -2 -45 -14 -14 -20 -15 -40 -4 -36 19 -60 66 -47 90 10 19 37 40 52 41 4
0 11 -12 14 -27z"/>
<path d="M1008 1525 c-15 -9 -39 -16 -53 -17 -15 -1 -30 -7 -34 -13 -11 -14
-23 -417 -13 -433 7 -10 16 -10 43 0 70 24 97 56 69 84 -6 6 -8 24 -4 41 5 24
13 33 42 41 33 11 38 9 74 -24 l38 -34 38 19 c49 26 80 56 88 86 9 35 -4 92
-21 99 -8 3 -15 12 -15 20 0 9 -10 36 -22 61 -23 48 -43 58 -128 69 -25 3 -52
7 -60 10 -8 3 -27 -1 -42 -9z"/>
<path d="M1087 973 c-4 -8 -1 -47 9 -99 7 -38 -30 -87 -81 -106 -19 -6 -35
-15 -35 -19 0 -4 -8 -9 -17 -11 -21 -4 -42 -123 -37 -202 4 -57 34 -91 91
-102 65 -12 199 24 206 56 2 8 -12 30 -29 48 -20 19 -36 47 -40 70 -4 20 -11
42 -15 48 -11 14 35 62 68 70 25 7 36 2 39 -19 1 -7 5 -19 9 -28 9 -24 -21
-32 -55 -14 -28 15 -30 14 -36 -9 -8 -33 2 -61 38 -102 33 -38 69 -44 103 -18
16 12 20 27 21 82 0 37 6 77 12 89 17 31 15 90 -4 105 -9 7 -26 23 -38 34
l-21 22 -35 -34 c-56 -56 -104 -36 -60 26 23 33 21 53 -11 94 -20 25 -72 37
-82 19z"/>
<path d="M889 953 c-13 -16 -12 -17 4 -4 9 7 17 15 17 17 0 8 -8 3 -21 -13z"/>
<path d="M941 853 c-11 -22 -6 -32 31 -56 31 -20 62 -12 93 23 l20 23 -20 -10
c-11 -6 -26 -8 -32 -6 -7 3 -13 -2 -13 -11 0 -22 -17 -20 -25 3 -3 10 -14 26
-24 36 -18 16 -20 16 -30 -2z"/>
<path d="M582 821 c-12 -11 -19 -25 -16 -33 8 -17 103 -102 108 -97 7 7 14
129 7 133 -3 2 -22 7 -41 10 -26 5 -41 1 -58 -13z"/>
<path d="M523 713 c-16 -6 -17 -38 -1 -63 10 -15 9 -22 -6 -39 -24 -27 -12
-42 30 -37 46 6 64 22 64 58 0 64 -39 101 -87 81z"/>
<path d="M787 616 c-6 -15 6 -29 36 -39 13 -5 17 -1 17 18 0 14 -4 25 -9 25
-5 0 -16 3 -24 6 -8 3 -17 -2 -20 -10z"/>
<path d="M365 611 c-3 -5 3 -12 13 -17 14 -6 11 -8 -13 -13 -26 -5 -30 -11
-32 -41 -2 -48 17 -74 74 -99 26 -12 65 -31 85 -41 54 -29 79 -25 132 21 60
53 69 71 67 137 -1 63 -8 76 -23 47 -6 -11 -27 -35 -47 -54 -34 -33 -36 -33
-104 -28 -61 4 -72 8 -93 33 -13 16 -23 34 -24 40 0 15 -28 26 -35 15z"/>
<path d="M770 499 c0 -5 -4 -8 -9 -5 -5 3 -11 -7 -13 -23 -3 -22 -1 -28 11
-23 10 4 13 1 8 -12 -5 -12 0 -19 16 -25 29 -11 42 -5 56 25 17 39 14 49 -22
62 -41 15 -47 15 -47 1z"/>
<path d="M1459 493 c-13 -16 -12 -17 4 -4 16 13 21 21 13 21 -2 0 -10 -8 -17
-17z"/>
</g>
</svg>
